<svg width="15" height="15" viewBox="0 0 15 15" fill="none" xmlns="http://www.w3.org/2000/svg">
<path d="M6.08625 14.4462C6.01375 14.3614 5.70375 14.0414 5.44875 13.7433C3.845 11.9956 1.22 7.43643 0.41875 5.05017C0.29 4.68777 0.0175 3.77155 0 3.28203C0 2.81296 0.09 2.36581 0.2725 1.93911C0.5275 1.40721 0.92875 0.980516 1.4025 0.746712C1.73125 0.596201 2.715 0.362397 2.7325 0.362397C3.80875 0.128592 5.5575 0 7.49 0C9.33125 0 11.0087 0.128592 12.1012 0.320019C12.1187 0.341939 13.3413 0.575743 13.76 0.831466C14.525 1.30054 15 2.21676 15 3.19727V3.28203C14.9812 3.9206 14.5062 5.26352 14.4887 5.26352C13.6862 7.52119 11.19 11.9752 9.53125 13.7652C9.53125 13.7652 9.105 14.2694 8.83875 14.4886C8.45625 14.8305 7.9825 15 7.50875 15C6.98 15 6.4875 14.8086 6.08625 14.4462Z" fill="#0C73FE"/>
</svg>
