<svg width="170" height="43" viewBox="0 0 170 43" fill="none" xmlns="http://www.w3.org/2000/svg">
<path d="M34 22.8413V1H8.09521V9.88889L32.4762 29.6984L20.0317 40.873L8.60315 31.7302V26.1429" stroke="white" stroke-width="2"/>
<path d="M15.4603 11.9207V6.58734L33.9999 22.5873" stroke="white" stroke-width="2"/>
<path d="M15.4603 29.1905C6.06247 20.888 3.36184 15.4772 2 4.80951L9.11111 10.6508" stroke="white" stroke-width="2"/>
<path d="M41.903 24L45.809 8.67H48.791L52.697 24H50.408L49.484 20.115H45.137L44.213 24H41.903ZM45.557 18.246H49.043L47.993 13.815C47.811 13.031 47.657 12.352 47.531 11.778C47.419 11.19 47.342 10.791 47.3 10.581C47.258 10.791 47.181 11.19 47.069 11.778C46.957 12.352 46.803 13.024 46.607 13.794L45.557 18.246ZM53.9908 24.105V22.026H54.4318C54.9778 22.026 55.3768 21.774 55.6288 21.27C55.8948 20.766 56.0348 19.947 56.0488 18.813L56.2168 8.67H64.3858V24H62.1178V10.749H58.4638L58.3168 18.813C58.2888 20.577 57.9598 21.9 57.3298 22.782C56.7138 23.664 55.7968 24.105 54.5788 24.105H53.9908ZM68.1576 24V8.67H77.1666V10.686H70.3836V15.033H76.4316V17.028H70.3836V21.984H77.1666V24H68.1576ZM80.4764 24V8.67H82.5764V16.713C82.5764 17.203 82.5624 17.742 82.5344 18.33C82.5204 18.918 82.4924 19.485 82.4504 20.031C82.4224 20.577 82.3944 21.039 82.3664 21.417L86.8184 8.67H89.6744V24H87.5744V16.083C87.5744 15.579 87.5814 15.026 87.5954 14.424C87.6234 13.822 87.6584 13.241 87.7004 12.681C87.7424 12.121 87.7774 11.645 87.8054 11.253L83.3324 24H80.4764ZM85.0754 7.116C84.0254 7.116 83.1784 6.836 82.5344 6.276C81.8904 5.716 81.5684 4.974 81.5684 4.05H83.3324C83.3324 4.554 83.4864 4.96 83.7944 5.268C84.1164 5.576 84.5364 5.73 85.0544 5.73C85.6004 5.73 86.0274 5.576 86.3354 5.268C86.6574 4.96 86.8184 4.554 86.8184 4.05H88.5824C88.5824 4.974 88.2604 5.716 87.6164 6.276C86.9724 6.836 86.1254 7.116 85.0754 7.116ZM91.8712 26.94V22.068H92.7322C92.8862 21.788 93.0472 21.417 93.2152 20.955C93.3832 20.493 93.5302 19.968 93.6562 19.38C93.7822 18.778 93.8522 18.141 93.8662 17.469L94.0132 8.67H102.056V22.068H103.463V26.94H101.405V24H93.9292V26.94H91.8712ZM95.0422 22.068H99.8512V10.644H96.1342L96.0292 17.469C96.0152 18.519 95.8962 19.457 95.6722 20.283C95.4482 21.095 95.2382 21.69 95.0422 22.068ZM104.862 24L108.768 8.67H111.75L115.656 24H113.367L112.443 20.115H108.096L107.172 24H104.862ZM108.516 18.246H112.002L110.952 13.815C110.77 13.031 110.616 12.352 110.49 11.778C110.378 11.19 110.301 10.791 110.259 10.581C110.217 10.791 110.14 11.19 110.028 11.778C109.916 12.352 109.762 13.024 109.566 13.794L108.516 18.246ZM118.336 24V8.67H122.851C124.307 8.67 125.448 9.02 126.274 9.72C127.1 10.42 127.513 11.386 127.513 12.618C127.513 13.318 127.359 13.927 127.051 14.445C126.757 14.949 126.344 15.341 125.812 15.621C125.28 15.901 124.657 16.041 123.943 16.041V15.831C124.713 15.817 125.392 15.964 125.98 16.272C126.568 16.566 127.03 17.007 127.366 17.595C127.702 18.183 127.87 18.883 127.87 19.695C127.87 20.563 127.674 21.326 127.282 21.984C126.904 22.628 126.358 23.125 125.644 23.475C124.944 23.825 124.111 24 123.145 24H118.336ZM120.541 22.047H122.956C123.768 22.047 124.412 21.83 124.888 21.396C125.364 20.962 125.602 20.36 125.602 19.59C125.602 18.806 125.364 18.176 124.888 17.7C124.412 17.224 123.768 16.986 122.956 16.986H120.541V22.047ZM120.541 15.096H122.83C123.586 15.096 124.181 14.893 124.615 14.487C125.049 14.081 125.266 13.535 125.266 12.849C125.266 12.163 125.049 11.624 124.615 11.232C124.181 10.826 123.593 10.623 122.851 10.623H120.541V15.096ZM130.844 24V8.67H132.944V16.713C132.944 17.203 132.93 17.742 132.902 18.33C132.888 18.918 132.86 19.485 132.818 20.031C132.79 20.577 132.762 21.039 132.734 21.417L137.186 8.67H140.042V24H137.942V16.083C137.942 15.579 137.949 15.026 137.963 14.424C137.991 13.822 138.026 13.241 138.068 12.681C138.11 12.121 138.145 11.645 138.173 11.253L133.7 24H130.844ZM142.637 24L146.543 8.67H149.525L153.431 24H151.142L150.218 20.115H145.871L144.947 24H142.637ZM146.291 18.246H149.777L148.727 13.815C148.545 13.031 148.391 12.352 148.265 11.778C148.153 11.19 148.076 10.791 148.034 10.581C147.992 10.791 147.915 11.19 147.803 11.778C147.691 12.352 147.537 13.024 147.341 13.794L146.291 18.246Z" fill="white"/>
</svg>
