<svg width="30" height="30" viewBox="0 0 30 30" fill="none" xmlns="http://www.w3.org/2000/svg">
<path d="M24.4844 6.26001C25.5387 6.26001 25.8162 7.05751 25.5044 8.93001C25.1475 11.0713 24.1194 18.1606 23.2994 22.5738C22.9856 24.2625 22.42 24.9906 21.5969 24.9906C21.1444 24.9906 20.6144 24.7706 20.0056 24.3688C19.1806 23.8238 15.0156 21.0694 14.1112 20.4225C13.2862 19.8331 12.1481 19.1238 13.5756 17.7275C14.0837 17.23 17.4131 14.0506 20.0069 11.5763C20.2837 11.3119 20.0519 10.9088 19.7444 10.9088C19.6744 10.9088 19.6 10.93 19.5275 10.9781C16.0312 13.2969 11.1831 16.515 10.5662 16.9344C9.94937 17.3531 9.34812 17.6219 8.54687 17.6219C8.13749 17.6219 7.67562 17.5519 7.13249 17.3956C5.91812 17.0469 4.7325 16.6313 4.27062 16.4725C2.4925 15.8625 2.91437 15.0719 4.64125 14.3119C11.565 11.2663 20.5244 7.55251 21.7612 7.03876C22.9662 6.53814 23.8612 6.26001 24.4844 6.26001ZM24.4844 4.38501C23.6294 4.38501 22.6 4.66063 21.0431 5.30626L20.8562 5.38376C14.2094 8.14376 8.18249 10.705 3.88625 12.595C3.215 12.8906 1.17312 13.7888 1.2525 15.6675C1.28625 16.4781 1.7325 17.5831 3.66249 18.245L3.80499 18.2938C4.34374 18.4794 5.46562 18.8663 6.61562 19.1969C7.31562 19.3981 7.94812 19.4956 8.54749 19.4956C9.58749 19.4956 10.3931 19.1988 11.0231 18.8531C11.02 18.9581 11.0225 19.0638 11.0306 19.17C11.1444 20.615 12.2619 21.4075 12.9294 21.8813L13.0225 21.9475C14.0081 22.6525 18.4687 25.5994 18.9737 25.9325C19.9244 26.56 20.7825 26.8644 21.5981 26.8644C22.8806 26.8644 24.5375 26.1794 25.1437 22.9156C25.7194 19.82 26.3844 15.4956 26.87 12.3381C27.0769 10.9906 27.2469 9.88563 27.355 9.23751C27.5731 7.92876 27.6731 6.44626 26.7625 5.37189C26.38 4.92189 25.675 4.38501 24.4844 4.38501Z" fill="white" fill-opacity="0.9"/>
</svg>
