<svg width="30" height="30" viewBox="0 0 30 30" fill="none" xmlns="http://www.w3.org/2000/svg">
<path d="M7.1875 3.75C5.30014 3.75 3.75 5.30014 3.75 7.1875V22.8125C3.75 24.6999 5.30014 26.25 7.1875 26.25H22.8125C24.6999 26.25 26.25 24.6999 26.25 22.8125V7.1875C26.25 5.30014 24.6999 3.75 22.8125 3.75H7.1875ZM7.1875 5.625H22.8125C23.6864 5.625 24.375 6.31361 24.375 7.1875V22.8125C24.375 23.6864 23.6864 24.375 22.8125 24.375H7.1875C6.31361 24.375 5.625 23.6864 5.625 22.8125V7.1875C5.625 6.31361 6.31361 5.625 7.1875 5.625ZM14.0588 7.5C13.8263 7.50009 13.6021 7.58658 13.4298 7.74268C13.2574 7.89878 13.1493 8.11335 13.1262 8.34473C12.9992 9.6304 12.4664 10.0797 11.9373 10.365C11.4081 10.6503 10.9253 10.6616 10.9253 10.6616C10.6788 10.6649 10.4435 10.7651 10.2703 10.9405C10.0971 11.116 10 11.3526 10 11.5991V14.0625C10 14.3111 10.0988 14.5496 10.2746 14.7254C10.4504 14.9012 10.6889 15 10.9375 15H11.875V17.8125C11.875 20.3903 13.9847 22.5 16.5625 22.5C17.9688 22.5 18.9538 22.1367 19.5825 21.7175C20.2113 21.2984 20.5261 20.7312 20.5261 20.7312C20.5911 20.6012 20.6249 20.4578 20.625 20.3125V18.4375C20.625 18.2678 20.5789 18.1013 20.4917 17.9558C20.4045 17.8103 20.2794 17.6911 20.1298 17.611C19.9802 17.531 19.8117 17.493 19.6422 17.5012C19.4728 17.5094 19.3087 17.5634 19.1675 17.6575C19.1675 17.6575 18.4334 18.125 17.5146 18.125C17.1501 18.125 17.0008 18.0523 16.98 18.0347C16.9591 18.0171 16.875 17.965 16.875 17.5V15H18.4375C18.6861 15 18.9246 14.9012 19.1004 14.7254C19.2762 14.5496 19.375 14.3111 19.375 14.0625V10.9375C19.375 10.6889 19.2762 10.4504 19.1004 10.2746C18.9246 10.0988 18.6861 10 18.4375 10H16.875V8.4375C16.875 8.18887 16.7762 7.95042 16.6004 7.77461C16.4246 7.5988 16.1861 7.50002 15.9375 7.5H14.0588ZM14.801 9.375H15V10.9375C15 11.1861 15.0988 11.4246 15.2746 11.6004C15.4504 11.7762 15.6889 11.875 15.9375 11.875H17.5V13.125H15.9375C15.6889 13.125 15.4504 13.2238 15.2746 13.3996C15.0988 13.5754 15 13.8139 15 14.0625V17.5C15 18.285 15.2355 19.0142 15.769 19.4653C16.3026 19.9165 16.9417 20 17.5146 20C18.0115 20 18.3613 19.8589 18.75 19.7498V19.9792C18.7288 20.0111 18.7514 20.0182 18.5425 20.1575C18.2337 20.3633 17.6562 20.625 16.5625 20.625C14.9978 20.625 13.75 19.3772 13.75 17.8125V14.0625C13.75 13.8139 13.6512 13.5754 13.4754 13.3996C13.2996 13.2238 13.0611 13.125 12.8125 13.125H11.875V12.3486C12.1728 12.2718 12.4767 12.2043 12.8271 12.0154C13.6199 11.588 14.4338 10.7062 14.801 9.375Z" fill="white" fill-opacity="0.9"/>
</svg>
