<svg width="30" height="30" viewBox="0 0 30 30" fill="none" xmlns="http://www.w3.org/2000/svg">
<path d="M20 3.75C16.6054 3.75 13.8504 6.49296 13.7769 9.87061C10.7755 9.51062 8.82099 8.38844 7.62207 7.28271C6.29249 6.05648 5.87158 4.96704 5.87158 4.96704C5.81014 4.81221 5.70855 4.67655 5.57727 4.57401C5.446 4.47147 5.28977 4.40576 5.12467 4.38363C4.95957 4.3615 4.79156 4.38375 4.63791 4.4481C4.48427 4.51245 4.35054 4.61657 4.25049 4.74976C4.25049 4.74976 3.125 6.25 3.125 8.4375C3.125 9.68812 3.51987 10.6135 3.99048 11.3977C3.97314 11.3896 3.8562 11.3489 3.8562 11.3489C3.70678 11.2743 3.54015 11.2409 3.37353 11.2523C3.20691 11.2637 3.04635 11.3193 2.90846 11.4136C2.77056 11.5078 2.66033 11.6371 2.58917 11.7882C2.518 11.9393 2.48848 12.1066 2.50366 12.2729C2.50366 12.2729 2.8645 14.9105 5.34424 16.8384L5.08545 16.9031C4.94497 16.9381 4.81453 17.0053 4.70434 17.0992C4.59415 17.1931 4.5072 17.3113 4.45033 17.4444C4.39345 17.5776 4.36818 17.7221 4.3765 17.8666C4.38482 18.0112 4.42651 18.1518 4.49829 18.2776C4.49829 18.2776 4.91878 18.9889 5.79956 19.7375C6.32178 20.1814 7.08892 20.6395 7.99317 21.0632C6.88267 21.469 5.22676 21.875 2.8125 21.875C2.63235 21.875 2.456 21.9269 2.30456 22.0244C2.15312 22.122 2.033 22.2612 1.95857 22.4252C1.88413 22.5893 1.85854 22.7713 1.88486 22.9495C1.91117 23.1278 1.98827 23.2946 2.10694 23.4302C2.10694 23.4302 2.82333 24.2194 4.2395 24.906C5.65568 25.5926 7.83717 26.25 10.9375 26.25C16.3873 26.25 20.3029 23.6357 22.7466 20.3223C25.1903 17.0088 26.25 13.0382 26.25 10C26.25 9.80722 26.238 9.61715 26.2207 9.42871C27.5402 8.15725 28.0354 7.2014 28.0591 7.15454C28.1778 6.91642 28.1336 6.63043 27.9492 6.44043C27.7655 6.2498 27.4806 6.19612 27.2388 6.30737L27.1375 6.35376C27.0506 6.39376 26.9637 6.43401 26.8762 6.47339C27.1306 6.06776 27.3313 5.6343 27.4707 5.18555C27.5482 4.93805 27.4645 4.66684 27.2595 4.50684C27.0545 4.34684 26.7722 4.32971 26.5503 4.46533C25.7864 4.9296 25.0542 5.25462 24.292 5.47241C23.1704 4.40842 21.6605 3.75 20 3.75ZM20 5.625C22.427 5.625 24.375 7.57301 24.375 10C24.375 12.5868 23.4035 16.2724 21.2378 19.209C19.0721 22.1455 15.8002 24.375 10.9375 24.375C8.58425 24.375 7.01887 23.9493 5.84595 23.4888C7.07459 23.298 8.13247 23.0434 8.89282 22.749C10.2114 22.2386 10.9229 21.6492 10.9229 21.6492C11.0534 21.5372 11.1505 21.3914 11.2038 21.2279C11.257 21.0643 11.2642 20.8893 11.2246 20.722C11.1851 20.5546 11.1002 20.4013 10.9794 20.2789C10.8586 20.1566 10.7064 20.0698 10.5396 20.0281C8.83785 19.6027 7.74646 18.9146 7.06177 18.3411L8.03955 18.0969C8.23292 18.0487 8.40588 17.94 8.53333 17.7868C8.66078 17.6336 8.7361 17.4438 8.74834 17.2448C8.76059 17.0459 8.70913 16.8483 8.60143 16.6806C8.49373 16.5129 8.3354 16.3839 8.14942 16.3123C6.12121 15.5322 5.26952 14.429 4.83399 13.5046C5.36397 13.6144 5.85744 13.75 6.5625 13.75C6.77363 13.7498 6.97853 13.6784 7.14401 13.5473C7.30949 13.4162 7.42587 13.233 7.47432 13.0275C7.52276 12.822 7.50043 12.6062 7.41094 12.415C7.32144 12.2238 7.17003 12.0683 6.9812 11.9739C6.9812 11.9739 5 11.0625 5 8.4375C5 7.96622 5.13053 7.66772 5.22583 7.31079C5.55282 7.75022 5.8223 8.17412 6.3501 8.66089C7.95927 10.145 10.619 11.6582 14.6375 11.8738C14.7646 11.8806 14.8918 11.8614 15.0113 11.8174C15.1308 11.7734 15.2401 11.7055 15.3325 11.6179C15.4249 11.5303 15.4985 11.4248 15.5488 11.3078C15.5991 11.1908 15.625 11.0648 15.625 10.9375V10C15.625 7.57301 17.573 5.625 20 5.625Z" fill="white" fill-opacity="0.9"/>
</svg>
