<svg width="28" height="24" viewBox="0 0 28 24" fill="none" xmlns="http://www.w3.org/2000/svg">
<path d="M19.0002 0.75C15.6056 0.75 12.8506 3.49296 12.7771 6.87061C9.77565 6.51062 7.82119 5.38844 6.62227 4.28271C5.29269 3.05648 4.87178 1.96704 4.87178 1.96704C4.81033 1.81221 4.70875 1.67655 4.57747 1.57401C4.44619 1.47147 4.28997 1.40576 4.12487 1.38363C3.95977 1.3615 3.79176 1.38375 3.63811 1.4481C3.48447 1.51245 3.35074 1.61657 3.25069 1.74976C3.25069 1.74976 2.1252 3.25 2.1252 5.4375C2.1252 6.68812 2.52007 7.61347 2.99068 8.39771C2.97334 8.38959 2.8564 8.34888 2.8564 8.34888C2.70698 8.27427 2.54035 8.24094 2.37373 8.25231C2.20711 8.26368 2.04655 8.31935 1.90866 8.41356C1.77076 8.50777 1.66053 8.63711 1.58937 8.7882C1.5182 8.93928 1.48868 9.10663 1.50386 9.27295C1.50386 9.27295 1.8647 11.9105 4.34444 13.8384L4.08565 13.9031C3.94517 13.9381 3.81473 14.0053 3.70454 14.0992C3.59434 14.1931 3.5074 14.3113 3.45053 14.4444C3.39365 14.5776 3.36838 14.7221 3.3767 14.8666C3.38502 15.0112 3.42671 15.1518 3.49849 15.2776C3.49849 15.2776 3.91898 15.9889 4.79976 16.7375C5.32198 17.1814 6.08912 17.6395 6.99336 18.0632C5.88287 18.469 4.22696 18.875 1.8127 18.875C1.63255 18.875 1.4562 18.9269 1.30476 19.0244C1.15332 19.122 1.0332 19.2612 0.958765 19.4252C0.884333 19.5893 0.858742 19.7713 0.885055 19.9495C0.911367 20.1278 0.988468 20.2946 1.10713 20.4302C1.10713 20.4302 1.82353 21.2194 3.2397 21.906C4.65588 22.5926 6.83737 23.25 9.9377 23.25C15.3875 23.25 19.3031 20.6357 21.7468 17.3223C24.1905 14.0088 25.2502 10.0382 25.2502 7C25.2502 6.80722 25.2382 6.61715 25.2209 6.42871C26.5404 5.15725 27.0356 4.2014 27.0593 4.15454C27.178 3.91642 27.1338 3.63043 26.9494 3.44043C26.7657 3.2498 26.4808 3.19612 26.239 3.30737L26.1377 3.35376C26.0508 3.39376 25.9639 3.43401 25.8764 3.47339C26.1308 3.06776 26.3315 2.6343 26.4709 2.18555C26.5484 1.93805 26.4647 1.66684 26.2597 1.50684C26.0547 1.34684 25.7724 1.32971 25.5505 1.46533C24.7866 1.9296 24.0544 2.25462 23.2922 2.47241C22.1706 1.40842 20.6607 0.75 19.0002 0.75ZM19.0002 2.625C21.4272 2.625 23.3752 4.57301 23.3752 7C23.3752 9.58681 22.4037 13.2724 20.238 16.209C18.0723 19.1455 14.8004 21.375 9.9377 21.375C7.58445 21.375 6.01907 20.9493 4.84615 20.4888C6.07479 20.298 7.13267 20.0434 7.89302 19.749C9.21156 19.2386 9.92305 18.6492 9.92305 18.6492C10.0536 18.5372 10.1507 18.3914 10.204 18.2279C10.2572 18.0643 10.2644 17.8893 10.2248 17.722C10.1853 17.5546 10.1004 17.4013 9.9796 17.2789C9.85876 17.1566 9.7066 17.0698 9.53975 17.0281C7.83805 16.6027 6.74666 15.9146 6.06197 15.3411L7.03975 15.0969C7.23312 15.0487 7.40608 14.94 7.53353 14.7868C7.66098 14.6336 7.7363 14.4438 7.74854 14.2448C7.76079 14.0459 7.70933 13.8483 7.60163 13.6806C7.49393 13.5129 7.3356 13.3839 7.14961 13.3123C5.12141 12.5322 4.26972 11.429 3.83418 10.5046C4.36417 10.6144 4.85764 10.75 5.5627 10.75C5.77383 10.7498 5.97872 10.6784 6.14421 10.5473C6.30969 10.4162 6.42607 10.233 6.47452 10.0275C6.52296 9.82204 6.50063 9.60621 6.41113 9.41498C6.32164 9.22376 6.17022 9.06833 5.9814 8.97388C5.9814 8.97388 4.0002 8.0625 4.0002 5.4375C4.0002 4.96622 4.13073 4.66772 4.22603 4.31079C4.55302 4.75022 4.8225 5.17412 5.3503 5.66089C6.95947 7.14497 9.61918 8.65822 13.6377 8.87378C13.7648 8.88056 13.892 8.86138 14.0115 8.81739C14.131 8.7734 14.2403 8.70553 14.3327 8.61792C14.4251 8.53031 14.4987 8.4248 14.549 8.30782C14.5993 8.19084 14.6252 8.06483 14.6252 7.9375V7C14.6252 4.57301 16.5732 2.625 19.0002 2.625Z" fill="white" fill-opacity="0.9"/>
</svg>
