<svg width="24" height="24" viewBox="0 0 24 24" fill="none" xmlns="http://www.w3.org/2000/svg">
<path d="M4.1875 0.75C2.30014 0.75 0.75 2.30014 0.75 4.1875V19.8125C0.75 21.6999 2.30014 23.25 4.1875 23.25H19.8125C21.6999 23.25 23.25 21.6999 23.25 19.8125V4.1875C23.25 2.30014 21.6999 0.75 19.8125 0.75H4.1875ZM4.1875 2.625H19.8125C20.6864 2.625 21.375 3.31361 21.375 4.1875V19.8125C21.375 20.6864 20.6864 21.375 19.8125 21.375H4.1875C3.31361 21.375 2.625 20.6864 2.625 19.8125V4.1875C2.625 3.31361 3.31361 2.625 4.1875 2.625ZM11.0588 4.5C10.8263 4.50009 10.6021 4.58658 10.4298 4.74268C10.2574 4.89878 10.1493 5.11335 10.1262 5.34473C9.9992 6.6304 9.46643 7.07972 8.93726 7.36499C8.40808 7.65026 7.92529 7.66162 7.92529 7.66162C7.67878 7.66486 7.44346 7.76505 7.27028 7.94051C7.09711 8.11598 7 8.35259 7 8.59912V11.0625C7.00002 11.3111 7.09881 11.5496 7.27462 11.7254C7.45043 11.9012 7.68887 12 7.9375 12H8.875V14.8125C8.875 17.3903 10.9847 19.5 13.5625 19.5C14.9688 19.5 15.9538 19.1367 16.5825 18.7175C17.2113 18.2984 17.5261 17.7312 17.5261 17.7312C17.5911 17.6012 17.6249 17.4578 17.625 17.3125V15.4375C17.625 15.2678 17.5789 15.1013 17.4917 14.9558C17.4045 14.8103 17.2794 14.6911 17.1298 14.611C16.9802 14.531 16.8117 14.493 16.6422 14.5012C16.4728 14.5094 16.3087 14.5634 16.1675 14.6575C16.1675 14.6575 15.4334 15.125 14.5146 15.125C14.1501 15.125 14.0008 15.0523 13.98 15.0347C13.9591 15.0171 13.875 14.965 13.875 14.5V12H15.4375C15.6861 12 15.9246 11.9012 16.1004 11.7254C16.2762 11.5496 16.375 11.3111 16.375 11.0625V7.9375C16.375 7.68887 16.2762 7.45043 16.1004 7.27462C15.9246 7.09881 15.6861 7.00002 15.4375 7H13.875V5.4375C13.875 5.18887 13.7762 4.95042 13.6004 4.77461C13.4246 4.5988 13.1861 4.50002 12.9375 4.5H11.0588ZM11.801 6.375H12V7.9375C12 8.18613 12.0988 8.42457 12.2746 8.60038C12.4504 8.77619 12.6889 8.87498 12.9375 8.875H14.5V10.125H12.9375C12.6889 10.125 12.4504 10.2238 12.2746 10.3996C12.0988 10.5754 12 10.8139 12 11.0625V14.5C12 15.285 12.2355 16.0142 12.769 16.4653C13.3026 16.9165 13.9417 17 14.5146 17C15.0115 17 15.3613 16.8589 15.75 16.7498V16.9792C15.7288 17.0111 15.7514 17.0182 15.5425 17.1575C15.2337 17.3633 14.6562 17.625 13.5625 17.625C11.9978 17.625 10.75 16.3772 10.75 14.8125V11.0625C10.75 10.8139 10.6512 10.5754 10.4754 10.3996C10.2996 10.2238 10.0611 10.125 9.8125 10.125H8.875V9.34863C9.17285 9.27183 9.47674 9.20428 9.82715 9.01538C10.6199 8.58805 11.4338 7.70617 11.801 6.375Z" fill="white" fill-opacity="0.9"/>
</svg>
