<svg width="27" height="23" viewBox="0 0 27 23" fill="none" xmlns="http://www.w3.org/2000/svg">
<path d="M23.4846 2.26001C24.539 2.26001 24.8165 3.05751 24.5046 4.93001C24.1477 7.07126 23.1196 14.1606 22.2996 18.5738C21.9859 20.2625 21.4202 20.9906 20.5971 20.9906C20.1446 20.9906 19.6146 20.7706 19.0059 20.3688C18.1809 19.8238 14.0159 17.0694 13.1115 16.4225C12.2865 15.8331 11.1484 15.1238 12.5759 13.7275C13.084 13.23 16.4134 10.0506 19.0071 7.57626C19.284 7.31188 19.0521 6.90876 18.7446 6.90876C18.6746 6.90876 18.6002 6.93001 18.5277 6.97814C15.0315 9.29689 10.1834 12.515 9.56649 12.9344C8.94961 13.3531 8.34836 13.6219 7.54711 13.6219C7.13774 13.6219 6.67586 13.5519 6.13274 13.3956C4.91836 13.0469 3.73274 12.6313 3.27086 12.4725C1.49274 11.8625 1.91461 11.0719 3.64149 10.3119C10.5652 7.26626 19.5246 3.55251 20.7615 3.03876C21.9665 2.53814 22.8615 2.26001 23.4846 2.26001ZM23.4846 0.38501C22.6296 0.38501 21.6002 0.660635 20.0434 1.30626L19.8565 1.38376C13.2096 4.14376 7.18274 6.70501 2.88649 8.59501C2.21524 8.89064 0.173364 9.78876 0.252739 11.6675C0.286489 12.4781 0.732739 13.5831 2.66274 14.245L2.80524 14.2938C3.34399 14.4794 4.46586 14.8663 5.61586 15.1969C6.31586 15.3981 6.94836 15.4956 7.54774 15.4956C8.58774 15.4956 9.39336 15.1988 10.0234 14.8531C10.0202 14.9581 10.0227 15.0638 10.0309 15.17C10.1446 16.615 11.2621 17.4075 11.9296 17.8813L12.0227 17.9475C13.0084 18.6525 17.469 21.5994 17.974 21.9325C18.9246 22.56 19.7827 22.8644 20.5984 22.8644C21.8809 22.8644 23.5377 22.1794 24.144 18.9156C24.7196 15.82 25.3846 11.4956 25.8702 8.33813C26.0771 6.99063 26.2471 5.88563 26.3552 5.23751C26.5734 3.92876 26.6734 2.44626 25.7627 1.37189C25.3802 0.921885 24.6752 0.38501 23.4846 0.38501Z" fill="white" fill-opacity="0.9"/>
</svg>
