<svg width="113" height="23" viewBox="0 0 113 23" fill="none" xmlns="http://www.w3.org/2000/svg">
<path d="M0.903 20L4.809 4.67H7.791L11.697 20H9.408L8.484 16.115H4.137L3.213 20H0.903ZM4.557 14.246H8.043L6.993 9.815C6.811 9.031 6.657 8.352 6.531 7.778C6.419 7.19 6.342 6.791 6.3 6.581C6.258 6.791 6.181 7.19 6.069 7.778C5.957 8.352 5.803 9.024 5.607 9.794L4.557 14.246ZM12.9908 20.105V18.026H13.4318C13.9778 18.026 14.3768 17.774 14.6288 17.27C14.8948 16.766 15.0348 15.947 15.0488 14.813L15.2168 4.67H23.3858V20H21.1178V6.749H17.4638L17.3168 14.813C17.2888 16.577 16.9598 17.9 16.3298 18.782C15.7138 19.664 14.7968 20.105 13.5788 20.105H12.9908ZM27.1576 20V4.67H36.1666V6.686H29.3836V11.033H35.4316V13.028H29.3836V17.984H36.1666V20H27.1576ZM39.4764 20V4.67H41.5764V12.713C41.5764 13.203 41.5624 13.742 41.5344 14.33C41.5204 14.918 41.4924 15.485 41.4504 16.031C41.4224 16.577 41.3944 17.039 41.3664 17.417L45.8184 4.67H48.6744V20H46.5744V12.083C46.5744 11.579 46.5814 11.026 46.5954 10.424C46.6234 9.822 46.6584 9.241 46.7004 8.681C46.7424 8.121 46.7774 7.645 46.8054 7.253L42.3324 20H39.4764ZM44.0754 3.116C43.0254 3.116 42.1784 2.836 41.5344 2.276C40.8904 1.716 40.5684 0.973999 40.5684 0.049999H42.3324C42.3324 0.553999 42.4864 0.959999 42.7944 1.268C43.1164 1.576 43.5364 1.73 44.0544 1.73C44.6004 1.73 45.0274 1.576 45.3354 1.268C45.6574 0.959999 45.8184 0.553999 45.8184 0.049999H47.5824C47.5824 0.973999 47.2604 1.716 46.6164 2.276C45.9724 2.836 45.1254 3.116 44.0754 3.116ZM50.8712 22.94V18.068H51.7322C51.8862 17.788 52.0472 17.417 52.2152 16.955C52.3832 16.493 52.5302 15.968 52.6562 15.38C52.7822 14.778 52.8522 14.141 52.8662 13.469L53.0132 4.67H61.0562V18.068H62.4632V22.94H60.4052V20H52.9292V22.94H50.8712ZM54.0422 18.068H58.8512V6.644H55.1342L55.0292 13.469C55.0152 14.519 54.8962 15.457 54.6722 16.283C54.4482 17.095 54.2382 17.69 54.0422 18.068ZM63.862 20L67.768 4.67H70.75L74.656 20H72.367L71.443 16.115H67.096L66.172 20H63.862ZM67.516 14.246H71.002L69.952 9.815C69.77 9.031 69.616 8.352 69.49 7.778C69.378 7.19 69.301 6.791 69.259 6.581C69.217 6.791 69.14 7.19 69.028 7.778C68.916 8.352 68.762 9.024 68.566 9.794L67.516 14.246ZM77.3358 20V4.67H81.8508C83.3068 4.67 84.4478 5.02 85.2738 5.72C86.0998 6.42 86.5128 7.386 86.5128 8.618C86.5128 9.318 86.3588 9.927 86.0508 10.445C85.7568 10.949 85.3438 11.341 84.8118 11.621C84.2798 11.901 83.6568 12.041 82.9428 12.041V11.831C83.7128 11.817 84.3918 11.964 84.9798 12.272C85.5678 12.566 86.0298 13.007 86.3658 13.595C86.7018 14.183 86.8698 14.883 86.8698 15.695C86.8698 16.563 86.6738 17.326 86.2818 17.984C85.9038 18.628 85.3578 19.125 84.6438 19.475C83.9438 19.825 83.1108 20 82.1448 20H77.3358ZM79.5408 18.047H81.9558C82.7678 18.047 83.4118 17.83 83.8878 17.396C84.3638 16.962 84.6018 16.36 84.6018 15.59C84.6018 14.806 84.3638 14.176 83.8878 13.7C83.4118 13.224 82.7678 12.986 81.9558 12.986H79.5408V18.047ZM79.5408 11.096H81.8298C82.5858 11.096 83.1808 10.893 83.6148 10.487C84.0488 10.081 84.2658 9.535 84.2658 8.849C84.2658 8.163 84.0488 7.624 83.6148 7.232C83.1808 6.826 82.5928 6.623 81.8508 6.623H79.5408V11.096ZM89.8436 20V4.67H91.9436V12.713C91.9436 13.203 91.9296 13.742 91.9016 14.33C91.8876 14.918 91.8596 15.485 91.8176 16.031C91.7896 16.577 91.7616 17.039 91.7336 17.417L96.1856 4.67H99.0416V20H96.9416V12.083C96.9416 11.579 96.9486 11.026 96.9626 10.424C96.9906 9.822 97.0256 9.241 97.0676 8.681C97.1096 8.121 97.1446 7.645 97.1726 7.253L92.6996 20H89.8436ZM101.637 20L105.543 4.67H108.525L112.431 20H110.142L109.218 16.115H104.871L103.947 20H101.637ZM105.291 14.246H108.777L107.727 9.815C107.545 9.031 107.391 8.352 107.265 7.778C107.153 7.19 107.076 6.791 107.034 6.581C106.992 6.791 106.915 7.19 106.803 7.778C106.691 8.352 106.537 9.024 106.341 9.794L105.291 14.246Z" fill="white"/>
</svg>
